<svg xmlns="http://www.w3.org/2000/svg" width="63.373" height="49.405" viewBox="0 0 63.373 49.405"><defs><style>.a{fill:#333;}</style></defs><path class="a" d="M46.977,13.988a.631.631,0,0,0-.117.011H16.252a.932.932,0,1,0,0,1.864h1.864V29.843H16.252a.932.932,0,1,0,0,1.864h1.864v7.55C17,39.2,16,39.162,15.32,39.162a8.048,8.048,0,0,0-7.474,4.707C6.451,46.658,6,50.269,6,54.074v.932H9.073A6.431,6.431,0,0,0,8.8,56.869a6.521,6.521,0,0,0,12.975.932H56.4a6.519,6.519,0,0,0,12.971-.83c0-.036,0-.069,0-.1V47.55a6.046,6.046,0,0,0-2.01-4.066,21.192,21.192,0,0,0-4.019-3.131,41.4,41.4,0,0,0-5.417-2.84l-9.494-21.65h2.3a.932.932,0,1,0,0-1.864h-3.59A1.293,1.293,0,0,0,46.977,13.988ZM12.524,14a.932.932,0,1,0,.932.932A.934.934,0,0,0,12.524,14Zm41.938,0a.932.932,0,1,0,.932.932A.934.934,0,0,0,54.462,14ZM19.979,15.863H46.395l9.815,22.378-1.383,2.767-10.7-10.7,2.6-2.6a.932.932,0,1,0-1.318-1.318l-6.524,6.524a.932.932,0,1,0,1.318,1.318l2.6-2.6L53.8,42.617a1.014,1.014,0,0,0,.153.127l-1.933,3.873h-13.4v-4.43l-.673-.193a69.518,69.518,0,0,0-9.48-1.787l-4.085-8.282a3.728,3.728,0,0,0-3.342-2.082H19.979ZM12.524,29.843a.932.932,0,1,0,.932.932A.934.934,0,0,0,12.524,29.843Zm7.456,1.864h1.059a1.853,1.853,0,0,1,1.667,1.038l3.549,7.194c-2.246-.251-4.4-.444-6.276-.572Zm37.69,7.787a32.024,32.024,0,0,1,4.685,2.439,19.772,19.772,0,0,1,3.67,2.84,4.466,4.466,0,0,1,1.485,2.778v4.765A6.511,6.511,0,0,0,56.4,55.937H21.771A6.511,6.511,0,0,0,9.957,53.171a.826.826,0,0,0-.229-.029H7.933a20.884,20.884,0,0,1,1.58-8.435,5.919,5.919,0,0,1,5.807-3.681c3.466,0,14.984.917,21.435,2.618v4.838H53.173ZM11.592,46.618a.932.932,0,1,0,.932.932A.934.934,0,0,0,11.592,46.618Zm3.728,0a.932.932,0,1,0,.932.932A.934.934,0,0,0,15.32,46.618Zm3.728,0a.932.932,0,1,0,.932.932A.934.934,0,0,0,19.047,46.618Zm3.728,0a.932.932,0,1,0,.932.932A.934.934,0,0,0,22.775,46.618Zm3.728,0a.932.932,0,1,0,.932.932A.934.934,0,0,0,26.5,46.618Zm3.728,0a.932.932,0,1,0,.932.932A.934.934,0,0,0,30.231,46.618Zm3.728,0a.932.932,0,1,0,.932.932A.934.934,0,0,0,33.959,46.618Zm22.367,0a.932.932,0,1,0,.932.932A.934.934,0,0,0,56.326,46.618Zm3.728,0a.932.932,0,1,0,.932.932A.934.934,0,0,0,60.054,46.618Zm3.728,0a.932.932,0,1,0,.932.932A.934.934,0,0,0,63.782,46.618ZM15.32,52.21a4.66,4.66,0,1,1-4.66,4.66A4.646,4.646,0,0,1,15.32,52.21Zm47.53,0a4.66,4.66,0,1,1-4.66,4.66A4.646,4.646,0,0,1,62.85,52.21ZM15.32,55.937a.932.932,0,1,0,.932.932A.934.934,0,0,0,15.32,55.937Zm47.53,0a.932.932,0,1,0,.932.932A.934.934,0,0,0,62.85,55.937Z" transform="translate(-6 -13.988)"/></svg>