<svg xmlns="http://www.w3.org/2000/svg" width="278.365" height="85.304" viewBox="0 0 278.365 85.304"><defs><style>.a{fill:#1a1818;}.b{fill:#ec4315;}</style></defs><g transform="translate(-16.749 -16.581)"><g transform="translate(16.749 91.043)"><path class="a" d="M19.632,125.892v2.684h-.588v-2.684l-2.295-4.651H17.4l1.36,2.826c.217.445.413.891.6,1.336h.011c.185-.467.424-.967.663-1.445l1.327-2.717h.62Z" transform="translate(-16.749 -120.644)"/><path class="a" d="M26.179,129.392c-1.414,0-2.317-.9-2.317-2.782a2.542,2.542,0,0,1,2.5-2.793c1.218,0,2.328.674,2.328,2.706A2.6,2.6,0,0,1,26.179,129.392Zm.108-5.107c-.936,0-1.827.706-1.827,2.281,0,1.489.675,2.347,1.839,2.347.924,0,1.794-.7,1.794-2.357C28.093,125.143,27.473,124.285,26.287,124.285Z" transform="translate(-18.761 -121.372)"/><path class="a" d="M36.361,129.339a8.26,8.26,0,0,1,.1-1.3l-.022-.01a2.026,2.026,0,0,1-1.979,1.4c-1.251,0-1.632-.771-1.632-1.738v-3.749H33.4v3.51c0,.957.26,1.51,1.163,1.51,1.077,0,1.817-1.021,1.817-2.445v-2.575h.577v5.4Z" transform="translate(-21.296 -121.406)"/><path class="a" d="M44.069,124.39c-1.272-.2-1.87.825-1.87,2.77V129.3h-.577v-5.4h.6a8.333,8.333,0,0,1-.141,1.467l.022.011a1.777,1.777,0,0,1,1.99-1.554Z" transform="translate(-23.784 -121.37)"/><path class="a" d="M50.3,128.576v-7.335h.587V128.1h2.872v.478Z" transform="translate(-26.237 -120.644)"/><path class="a" d="M56.966,121.731a.43.43,0,0,1-.436-.434.437.437,0,0,1,.436-.435.43.43,0,0,1,.435.435A.436.436,0,0,1,56.966,121.731Zm-.294,6.738v-5.4h.577v5.4Z" transform="translate(-28 -120.536)"/><path class="a" d="M61.659,128.622c-1.033,0-1.327-.489-1.327-1.554V123.6H59.048v-.456h1.284V121.3l.577-.163v2.01h1.707v.456H60.908v3.14c0,1.087.184,1.359.892,1.359a3.244,3.244,0,0,0,.772-.1l.087.511A4.817,4.817,0,0,1,61.659,128.622Z" transform="translate(-28.712 -120.614)"/><path class="a" d="M67.24,128.622c-1.033,0-1.327-.489-1.327-1.554V123.6H64.63v-.456h1.283V121.3l.577-.163v2.01H68.2v.456H66.49v3.14c0,1.087.184,1.359.891,1.359a3.25,3.25,0,0,0,.772-.1l.087.511A4.817,4.817,0,0,1,67.24,128.622Z" transform="translate(-30.291 -120.614)"/><path class="a" d="M71.728,128.341v-7.933H72.3v7.933Z" transform="translate(-32.299 -120.408)"/><path class="a" d="M79.116,126.392H75.4c-.065,1.738.62,2.489,1.915,2.489a3.708,3.708,0,0,0,1.523-.316l.13.5a4.717,4.717,0,0,1-1.784.326c-1.566,0-2.4-.881-2.4-2.771,0-1.609.86-2.8,2.306-2.8a1.934,1.934,0,0,1,2.045,2.141C79.127,126.023,79.127,126.207,79.116,126.392Zm-2.078-2.108c-.838,0-1.458.6-1.61,1.651H78.5A1.425,1.425,0,0,0,77.039,124.285Z" transform="translate(-33.161 -121.372)"/><path class="a" d="M87.894,125.575c-.445,0-.837-.044-.837-.044v3.032H86.47v-7.335s.913-.033,1.632-.033c1.588,0,2.458.848,2.458,2.022A2.375,2.375,0,0,1,87.894,125.575Zm.066-3.89c-.49,0-.9.022-.9.022v3.3a5.863,5.863,0,0,0,.924.076c1.327,0,1.958-.706,1.958-1.749C89.94,122.249,89.286,121.685,87.96,121.685Z" transform="translate(-36.468 -120.631)"/><path class="a" d="M96.758,124.39c-1.273-.2-1.871.825-1.871,2.77V129.3h-.576v-5.4h.6a8.265,8.265,0,0,1-.141,1.467l.022.011a1.777,1.777,0,0,1,1.99-1.554Z" transform="translate(-38.686 -121.37)"/><path class="a" d="M99.917,121.731a.429.429,0,0,1-.435-.434.437.437,0,0,1,.435-.435.429.429,0,0,1,.435.435A.435.435,0,0,1,99.917,121.731Zm-.293,6.738v-5.4h.576v5.4Z" transform="translate(-40.148 -120.536)"/><path class="a" d="M104.873,129.339h-.609l-2.067-5.4h.675l1.424,3.977c.108.316.2.565.283.859h.011c.087-.272.185-.554.283-.826l1.469-4.01h.641Z" transform="translate(-40.916 -121.406)"/><path class="a" d="M112.838,129.3a8.169,8.169,0,0,1,.065-1.228l-.022-.011a2.034,2.034,0,0,1-1.947,1.326,1.35,1.35,0,0,1-1.458-1.38c0-1.043,1.132-1.826,3.361-1.826v-.3c0-1.065-.316-1.587-1.317-1.587a3.926,3.926,0,0,0-1.621.414l-.152-.489a4.687,4.687,0,0,1,1.86-.4c1.36,0,1.806.749,1.806,1.88v1.891c0,.576.01,1.216.022,1.717Zm0-2.652c-2.143,0-2.763.62-2.763,1.25a.95.95,0,0,0,.99,1,1.989,1.989,0,0,0,1.774-2.119Z" transform="translate(-42.975 -121.372)"/><path class="a" d="M118.9,128.622c-1.033,0-1.327-.489-1.327-1.554V123.6h-1.283v-.456h1.283V121.3l.577-.163v2.01h1.708v.456h-1.708v3.14c0,1.087.185,1.359.891,1.359a3.245,3.245,0,0,0,.772-.1l.087.511A4.81,4.81,0,0,1,118.9,128.622Z" transform="translate(-44.901 -120.614)"/><path class="a" d="M126.937,126.392h-3.72c-.065,1.738.62,2.489,1.915,2.489a3.705,3.705,0,0,0,1.523-.316l.131.5a4.721,4.721,0,0,1-1.784.326c-1.566,0-2.4-.881-2.4-2.771,0-1.609.859-2.8,2.3-2.8a1.934,1.934,0,0,1,2.045,2.141C126.947,126.023,126.947,126.207,126.937,126.392Zm-2.078-2.108c-.838,0-1.457.6-1.609,1.651h3.067A1.425,1.425,0,0,0,124.859,124.285Z" transform="translate(-46.686 -121.372)"/><path class="a" d="M135.552,121.719v6.857h-.587v-6.857h-2.328v-.478h5.243v.478Z" transform="translate(-49.525 -120.644)"/><path class="a" d="M142.789,124.39c-1.273-.2-1.871.825-1.871,2.77V129.3h-.577v-5.4h.6a8.339,8.339,0,0,1-.142,1.467l.022.011a1.776,1.776,0,0,1,1.99-1.554Z" transform="translate(-51.704 -121.37)"/><path class="a" d="M148.07,129.3a8.167,8.167,0,0,1,.065-1.228l-.022-.011a2.032,2.032,0,0,1-1.947,1.326,1.35,1.35,0,0,1-1.458-1.38c0-1.043,1.132-1.826,3.361-1.826v-.3c0-1.065-.316-1.587-1.316-1.587a3.924,3.924,0,0,0-1.621.414l-.152-.489a4.687,4.687,0,0,1,1.86-.4c1.359,0,1.805.749,1.805,1.88v1.891c0,.576.011,1.216.022,1.717Zm0-2.652c-2.143,0-2.763.62-2.763,1.25a.95.95,0,0,0,.99,1,1.989,1.989,0,0,0,1.773-2.119Z" transform="translate(-52.94 -121.372)"/><path class="a" d="M156.805,129.3v-3.511c0-.956-.261-1.51-1.164-1.51-1.077,0-1.817,1.021-1.817,2.445V129.3h-.577v-5.4h.6a8.26,8.26,0,0,1-.1,1.3l.022.01a2.026,2.026,0,0,1,1.979-1.4c1.251,0,1.632.772,1.632,1.738V129.3Z" transform="translate(-55.355 -121.372)"/><path class="a" d="M162.652,129.392a4.618,4.618,0,0,1-1.208-.141l.1-.576a3.815,3.815,0,0,0,1.239.207c.849,0,1.469-.4,1.469-1.054,0-1.467-2.828-.532-2.828-2.489,0-.88.707-1.521,2.012-1.521a5.245,5.245,0,0,1,1.1.131l-.087.511a3.723,3.723,0,0,0-1.109-.174c-.892,0-1.327.38-1.327.978,0,1.478,2.829.565,2.829,2.466C164.839,128.631,164.034,129.392,162.652,129.392Z" transform="translate(-57.667 -121.372)"/><path class="a" d="M170.319,129.359a6.591,6.591,0,0,1-1.131-.077v2.76h-.577V123.9h.61a7.251,7.251,0,0,1-.108,1.293l.022.011a2.013,2.013,0,0,1,1.914-1.391c1.262,0,2,.848,2,2.554C173.05,128.337,171.951,129.359,170.319,129.359Zm.663-5.075c-1.229,0-1.794,1.434-1.794,2.412v2.043a3.7,3.7,0,0,0,1.2.163c1.251,0,2.055-.739,2.055-2.489C172.44,125.1,171.983,124.285,170.983,124.285Z" transform="translate(-59.7 -121.372)"/><path class="a" d="M178.588,129.392c-1.414,0-2.317-.9-2.317-2.782a2.542,2.542,0,0,1,2.5-2.793c1.218,0,2.328.674,2.328,2.706A2.6,2.6,0,0,1,178.588,129.392Zm.108-5.107c-.935,0-1.827.706-1.827,2.281,0,1.489.675,2.347,1.839,2.347.924,0,1.794-.7,1.794-2.357C180.5,125.143,179.883,124.285,178.7,124.285Z" transform="translate(-61.866 -121.372)"/><path class="a" d="M187.682,124.39c-1.272-.2-1.87.825-1.87,2.77V129.3h-.577v-5.4h.6a8.333,8.333,0,0,1-.141,1.467l.022.011a1.777,1.777,0,0,1,1.991-1.554Z" transform="translate(-64.401 -121.37)"/><path class="a" d="M191.97,128.622c-1.033,0-1.327-.489-1.327-1.554V123.6h-1.284v-.456h1.284V121.3l.577-.163v2.01h1.708v.456h-1.708v3.14c0,1.087.185,1.359.892,1.359a3.234,3.234,0,0,0,.772-.1l.088.511A4.81,4.81,0,0,1,191.97,128.622Z" transform="translate(-65.568 -120.614)"/><path class="a" d="M199.136,129.3a8.266,8.266,0,0,1,.065-1.228l-.022-.011a2.032,2.032,0,0,1-1.946,1.326,1.35,1.35,0,0,1-1.458-1.38c0-1.043,1.132-1.826,3.361-1.826v-.3c0-1.065-.316-1.587-1.316-1.587a3.918,3.918,0,0,0-1.621.414l-.153-.489a4.69,4.69,0,0,1,1.86-.4c1.36,0,1.806.749,1.806,1.88v1.891c0,.576.011,1.216.022,1.717Zm0-2.652c-2.143,0-2.763.62-2.763,1.25a.95.95,0,0,0,.99,1,1.988,1.988,0,0,0,1.773-2.119Z" transform="translate(-67.383 -121.372)"/><path class="a" d="M205.2,128.622c-1.034,0-1.327-.489-1.327-1.554V123.6h-1.284v-.456h1.284V121.3l.577-.163v2.01h1.708v.456h-1.708v3.14c0,1.087.184,1.359.892,1.359a3.244,3.244,0,0,0,.772-.1l.087.511A4.81,4.81,0,0,1,205.2,128.622Z" transform="translate(-69.309 -120.614)"/><path class="a" d="M209.921,121.731a.43.43,0,0,1-.436-.434.437.437,0,0,1,.436-.435.43.43,0,0,1,.435.435A.436.436,0,0,1,209.921,121.731Zm-.294,6.738v-5.4h.577v5.4Z" transform="translate(-71.26 -120.536)"/><path class="a" d="M215.032,129.392c-1.414,0-2.316-.9-2.316-2.782a2.542,2.542,0,0,1,2.5-2.793c1.218,0,2.328.674,2.328,2.706A2.6,2.6,0,0,1,215.032,129.392Zm.109-5.107c-.935,0-1.827.706-1.827,2.281,0,1.489.674,2.347,1.838,2.347.924,0,1.8-.7,1.8-2.357C216.947,125.143,216.327,124.285,215.141,124.285Z" transform="translate(-72.174 -121.372)"/><path class="a" d="M225.237,129.3v-3.511c0-.956-.262-1.51-1.164-1.51-1.077,0-1.817,1.021-1.817,2.445V129.3h-.576v-5.4h.6a8.263,8.263,0,0,1-.1,1.3l.022.01a2.026,2.026,0,0,1,1.979-1.4c1.251,0,1.632.772,1.632,1.738V129.3Z" transform="translate(-74.709 -121.372)"/></g><g transform="translate(178.067 90.119)"><path class="a" d="M244.4,129c-2,0-2.713-.956-2.713-2.469a2.416,2.416,0,0,1,2.524-2.573,6.378,6.378,0,0,1,2.03.367v4.223h1.63V129Zm1.283-4.3a3.923,3.923,0,0,0-1.546-.294,1.835,1.835,0,0,0-1.873,2.049c0,1.429.652,2.091,2.25,2.091h1.168Zm-2.208-2.6a.416.416,0,0,1,.421.42.422.422,0,0,1-.421.42.415.415,0,0,1-.421-.42A.421.421,0,0,1,243.474,122.094Zm1.367,0a.416.416,0,0,1,.421.42.422.422,0,0,1-.421.42.416.416,0,0,1-.421-.42A.422.422,0,0,1,244.841,122.094Z" transform="translate(-241.686 -119.961)"/><path class="a" d="M250.09,131.088h1.43v.452h-1.43Z" transform="translate(-244.063 -122.505)"/><path class="a" d="M251.864,131.088h1.43v.452h-1.43Z" transform="translate(-244.565 -122.505)"/><path class="a" d="M253.638,131.088h1.43v.452h-1.43Z" transform="translate(-245.066 -122.505)"/><path class="a" d="M255.412,131.088h1.43v.452h-1.43Z" transform="translate(-245.568 -122.505)"/><path class="a" d="M257.186,131.088h1.431v.452h-1.431Z" transform="translate(-246.07 -122.505)"/><path class="a" d="M258.961,131.088h1.43v.452h-1.43Z" transform="translate(-246.572 -122.505)"/><path class="a" d="M260.735,131.088h1.43v.452h-1.43Z" transform="translate(-247.074 -122.505)"/><path class="a" d="M262.261,129.729c-.211,0-.631-.074-.631-.232s.42-.22.631-.22h1.787v-4.486h.557v.557a21.918,21.918,0,0,1-.1,2.2h.01c.516-1.88,1.778-2.857,3.1-2.857,1.241,0,1.987.861,1.987,2.395,0,1.4-.726,2.648-2.924,2.648Zm4.49-.452c1.789,0,2.272-1.008,2.272-2.133,0-1.229-.473-2.007-1.493-2.007-1.736,0-2.808,2.238-2.934,4.14Z" transform="translate(-247.327 -120.695)"/><path class="a" d="M275.46,121.391h.557v6.954h1.63v.452H275.46Z" transform="translate(-251.238 -119.762)"/><path class="a" d="M278.29,131.088h1.43v.452h-1.43Z" transform="translate(-252.039 -122.505)"/><path class="a" d="M280.064,131.088h1.431v.452h-1.431Z" transform="translate(-252.54 -122.505)"/><path class="a" d="M280.959,128.764c0-.147.42-.22.631-.22h4.175a10.377,10.377,0,0,0,.095-1.355c0-1.838-.61-2.71-2.545-2.71a9.516,9.516,0,0,0-1.335.1v-.441a9.564,9.564,0,0,1,1.378-.115c2.272,0,3.06,1.082,3.06,3.078a11.482,11.482,0,0,1-.1,1.439h.978V129h-5.7C281.379,129,280.959,128.922,280.959,128.764Zm2.681-6.67a.415.415,0,0,1,.42.42.422.422,0,0,1-.42.42.415.415,0,0,1-.421-.42A.421.421,0,0,1,283.641,122.094Z" transform="translate(-252.794 -119.961)"/><path class="a" d="M289.567,131.088H291v.452h-1.43Z" transform="translate(-255.228 -122.505)"/><path class="a" d="M291.342,131.088h1.43v.452h-1.43Z" transform="translate(-255.73 -122.505)"/><path class="a" d="M293.116,131.088h1.43v.452h-1.43Z" transform="translate(-256.232 -122.505)"/><path class="a" d="M294.642,128.8c-.211,0-.631-.074-.631-.232s.42-.22.631-.22h1.787v-6.954h.557V128.8Z" transform="translate(-256.485 -119.762)"/><path class="a" d="M301.534,121.391h.557V128.8h-.557Z" transform="translate(-258.613 -119.762)"/><path class="a" d="M308.5,125.792a4.43,4.43,0,0,1,.4-1.849l.6-.115a4.48,4.48,0,0,0-.443,1.88c0,1.713.621,2.637,3.04,2.637h2.839v-6.954h.557v6.954h1.629v.452H312C309.552,128.8,308.5,127.851,308.5,125.792Zm2.587-1.649a6.086,6.086,0,0,1,.863.052.656.656,0,0,1-.379-.589c0-.452.326-.924,1.168-.924a2.758,2.758,0,0,1,.515.042l-.063.4a3.542,3.542,0,0,0-.5-.042c-.432,0-.652.2-.652.5s.252.557.9.557h.536v.4h-2.387Z" transform="translate(-260.583 -119.762)"/><path class="a" d="M320.307,131.088h1.43v.452h-1.43Z" transform="translate(-263.922 -122.505)"/><path class="a" d="M322.081,131.088h1.43v.452h-1.43Z" transform="translate(-264.424 -122.505)"/><path class="a" d="M323.855,131.088h1.431v.452h-1.431Z" transform="translate(-264.926 -122.505)"/><path class="a" d="M325.381,128.8c-.211,0-.631-.074-.631-.232s.42-.22.631-.22h1.787v-6.954h.557v6.954h1.631v.452Z" transform="translate(-265.179 -119.762)"/><path class="a" d="M330.953,131.088h1.43v.452h-1.43Z" transform="translate(-266.933 -122.505)"/><path class="a" d="M336.322,120.717c-.337,0-.568-.179-.631-.63l-.074-.494.378-.063.085.515c.042.231.126.3.3.3a.355.355,0,0,0,.336-.452l-.073-.473.389-.063.073.493c.042.232.169.357.336.357.316,0,.379-.241.337-.546l-.074-.494.389-.052.074.483a.767.767,0,0,1-.8.977.6.6,0,0,1-.451-.2A.7.7,0,0,1,336.322,120.717Z" transform="translate(-268.252 -119.12)"/><path class="a" d="M332.479,129.079c-.211,0-.631-.074-.631-.232s.42-.22.631-.22h1.093c.389,0,.842.021.842.021a2.257,2.257,0,0,1-.894-2.091,2.359,2.359,0,0,1,2.419-2.521,2.124,2.124,0,0,1,2.25,2.448,2.582,2.582,0,0,1-1.019,2.164s.62-.021,1.019-.021h.841v.452Zm5.131-2.564c0-1.26-.6-2.027-1.746-2.027a1.794,1.794,0,0,0-1.767,2.038c0,1.334.652,2.1,1.778,2.1C336.769,128.627,337.61,128.007,337.61,126.515Zm-2.387-4.128a.415.415,0,0,1,.42.42.422.422,0,0,1-.42.42.415.415,0,0,1-.421-.42A.421.421,0,0,1,335.224,122.387Zm1.367,0a.416.416,0,0,1,.421.42.422.422,0,0,1-.421.42.416.416,0,0,1-.421-.42A.422.422,0,0,1,336.591,122.387Z" transform="translate(-267.186 -120.044)"/><path class="a" d="M341.644,131.088h1.431v.452h-1.431Z" transform="translate(-269.957 -122.505)"/><path class="a" d="M342.539,128.764c0-.147.42-.22.631-.22h1.787v-4.486h.557v4.486h1.631V129H343.17C342.959,129,342.539,128.922,342.539,128.764Zm2.692-6.67a.415.415,0,0,1,.42.42.422.422,0,0,1-.42.42.415.415,0,0,1-.421-.42A.421.421,0,0,1,345.231,122.094Z" transform="translate(-270.21 -119.961)"/><path class="a" d="M348.742,131.088h1.43v.452h-1.43Z" transform="translate(-271.965 -122.505)"/><path class="a" d="M350.268,129c-.211,0-.631-.074-.631-.232s.42-.22.631-.22h1.787v-4.486h.557V129Zm1.356-6.9a.415.415,0,0,1,.42.42.422.422,0,0,1-.42.42.415.415,0,0,1-.421-.42A.421.421,0,0,1,351.624,122.094Zm1.367,0a.415.415,0,0,1,.42.42.421.421,0,0,1-.42.42.415.415,0,0,1-.42-.42A.421.421,0,0,1,352.991,122.094Z" transform="translate(-272.218 -119.961)"/><path class="a" d="M362.556,129c-2,0-2.713-.956-2.713-2.469a2.416,2.416,0,0,1,2.524-2.573,6.378,6.378,0,0,1,2.03.367v4.223h1.63V129Zm1.283-4.3a3.923,3.923,0,0,0-1.546-.294,1.835,1.835,0,0,0-1.873,2.049c0,1.429.653,2.091,2.25,2.091h1.168Zm-2.208-2.6a.416.416,0,0,1,.421.42.422.422,0,0,1-.421.42.416.416,0,0,1-.421-.42A.422.422,0,0,1,361.631,122.094Zm1.367,0a.416.416,0,0,1,.421.42.422.422,0,0,1-.421.42.416.416,0,0,1-.421-.42A.422.422,0,0,1,363,122.094Z" transform="translate(-275.104 -119.961)"/><path class="a" d="M368.247,131.088h1.43v.452h-1.43Z" transform="translate(-277.481 -122.505)"/><path class="a" d="M369.772,129.771c-.21,0-.63-.074-.63-.232s.42-.22.63-.22h1.788v-4.486h.557v4.938Zm1.483,1.145a.416.416,0,0,1,.421.42.422.422,0,0,1-.421.42.416.416,0,0,1-.421-.42A.422.422,0,0,1,371.255,130.915Z" transform="translate(-277.734 -120.736)"/><path class="a" d="M373.513,132.3l.115-.493a3.531,3.531,0,0,0,1.251.241c1.03,0,1.661-.514,1.661-2.132v-5.085h.558v4.486h1.629v.452H377.1v.052c0,1.649-.631,2.679-2.282,2.679A4.583,4.583,0,0,1,373.513,132.3Z" transform="translate(-278.971 -120.736)"/><path class="a" d="M380.566,131.088H382v.452h-1.431Z" transform="translate(-280.965 -122.505)"/><path class="a" d="M382.341,131.088h1.43v.452h-1.43Z" transform="translate(-281.467 -122.505)"/><path class="a" d="M384.115,131.088h1.43v.452h-1.43Z" transform="translate(-281.969 -122.505)"/><path class="a" d="M385.89,131.088h1.43v.452h-1.43Z" transform="translate(-282.471 -122.505)"/><path class="a" d="M387.664,131.088h1.43v.452h-1.43Z" transform="translate(-282.973 -122.505)"/><path class="a" d="M389.438,131.088h1.431v.452h-1.431Z" transform="translate(-283.475 -122.505)"/><path class="a" d="M391.213,131.088h1.43v.452h-1.43Z" transform="translate(-283.977 -122.505)"/><path class="a" d="M392.987,131.088h1.43v.452h-1.43Z" transform="translate(-284.478 -122.505)"/><path class="a" d="M394.762,131.088h1.43v.452h-1.43Z" transform="translate(-284.98 -122.505)"/><path class="a" d="M396.287,129.729c-.211,0-.631-.074-.631-.232s.42-.22.631-.22h2.534a2.24,2.24,0,0,1-1.441-2.154,2.3,2.3,0,0,1,2.451-2.437,4.212,4.212,0,0,1,1.43.273l-.115.463a3.893,3.893,0,0,0-1.4-.294,1.743,1.743,0,0,0-1.809,1.922c0,1.24.926,2.228,3.186,2.228h.9v.452Z" transform="translate(-285.233 -120.695)"/></g><g transform="translate(111.435 16.581)"><path class="a" d="M292.675,21.43H296.8a.292.292,0,0,0,.212-.095.346.346,0,0,0,.1-.255V17.027a.331.331,0,0,0-.1-.245.263.263,0,0,0-.212-.1h-4.122a.267.267,0,0,0-.214.1.328.328,0,0,0-.09.245V21.08a.344.344,0,0,0,.09.255A.276.276,0,0,0,292.675,21.43Zm6,0h4.13a.283.283,0,0,0,.212-.095.374.374,0,0,0,.1-.255V17.027a.358.358,0,0,0-.1-.245.256.256,0,0,0-.212-.1h-4.13a.264.264,0,0,0-.209.1.38.38,0,0,0-.088.245V21.08a.365.365,0,0,0,.088.255A.266.266,0,0,0,298.671,21.43Zm18.4,20.33h-4.156a.279.279,0,0,0-.214.1.393.393,0,0,0-.088.247v4.023a.4.4,0,0,0,.088.252.3.3,0,0,0,.214.1h4.156a.277.277,0,0,0,.214-.1.4.4,0,0,0,.094-.247V42.11a.393.393,0,0,0-.094-.247A.268.268,0,0,0,317.075,41.76Zm.884-17.564h-4.1a.287.287,0,0,0-.217.108.375.375,0,0,0-.09.241v8.823c-.033,1.221-.488,1.706-1.454,1.743h-6.027c-.927-.037-1.391-.519-1.427-1.743V22.526a.373.373,0,0,0-.115-.282.272.272,0,0,0-.258-.066l-4.094,1.155a.346.346,0,0,0-.231.341v.843c-4.893.09-8.656,2.153-8.65,7.665,0,.084.005.147.011.213.032,3.267,2.448,6.338,5.5,6.536.118,0,.229.005.344.005a4.8,4.8,0,0,0,3.557-1.628,5.053,5.053,0,0,0,4.962,3.156h6.794c5.346-.008,5.791-5.38,5.8-7.378V24.546a.394.394,0,0,0-.093-.241A.256.256,0,0,0,317.959,24.2ZM299.95,31.93c-.022,2.068-.955,2.95-2.094,2.968h-.063c-1.432,0-1.959-1.672-1.968-2.779a.46.46,0,0,1,0-.063c.077-2.846,2.16-3.82,4.125-3.927ZM364.032,17.1h-4.089a.267.267,0,0,0-.214.1.359.359,0,0,0-.1.246V33.369c-.033,1.221-.488,1.706-1.449,1.743h-7.986a19.9,19.9,0,0,0,2.486-3.714l.037-.227c-1.053-7.067-5.1-8.093-7.629-8.088l-.006.352v-.352h-.06c-2.568-.014-6.614.989-7.632,8.049l.024.222a17.838,17.838,0,0,0,2.459,3.758H333.6c-1.66-.029-2.524-1.071-2.609-2.88v-6.6a.379.379,0,0,0-.088-.242.284.284,0,0,0-.212-.105h-4.13a.3.3,0,0,0-.214.105.413.413,0,0,0-.087.242V37.67c-.027,3.1-2.1,4-3.458,4.02a8.088,8.088,0,0,1-2.311-.392,10.227,10.227,0,0,1-1.059-.387.3.3,0,0,0-.307.052.37.37,0,0,0-.1.335l.673,3.887a.335.335,0,0,0,.167.255,10.075,10.075,0,0,0,3.463,1.008l.033-.349-.033.349a5.907,5.907,0,0,0,.6.029h.017c3.192,0,6.29-2.419,6.921-6.859a5.239,5.239,0,0,0,2.98.845h7.784a7.757,7.757,0,0,0,3.458-.906,7.4,7.4,0,0,0,3.4.906h10.064c5.338-.008,5.788-5.383,5.794-7.378V17.445a.4.4,0,0,0-.089-.246A.291.291,0,0,0,364.032,17.1ZM345.056,33.773a10.458,10.458,0,0,1-2.672-3.313,3.053,3.053,0,0,1,2.672-2.448,3.175,3.175,0,0,1,2.673,2.451A10.885,10.885,0,0,1,345.056,33.773ZM372.671,17.2a.286.286,0,0,0-.214-.1H368.4a.278.278,0,0,0-.217.1.44.44,0,0,0-.085.246v22.67a.445.445,0,0,0,.085.249.285.285,0,0,0,.217.1h4.061a.275.275,0,0,0,.209-.1.374.374,0,0,0,.1-.249V17.445A.391.391,0,0,0,372.671,17.2Z" transform="translate(-189.086 -16.608)"/><path class="b" d="M153.023,21.443h4.119a.287.287,0,0,0,.222-.1.408.408,0,0,0,.08-.252V17.034a.424.424,0,0,0-.08-.251.318.318,0,0,0-.222-.093h-4.119a.3.3,0,0,0-.216.093.382.382,0,0,0-.09.251v4.053a.358.358,0,0,0,.09.252A.268.268,0,0,0,153.023,21.443Zm10.305,1.647H156.2c-4.6.008-7.423,3.594-7.428,8.676,0,5.108,2.83,8.7,7.428,8.705s7.423-3.6,7.432-8.705V23.435a.367.367,0,0,0-.088-.248A.291.291,0,0,0,163.328,23.089Zm-4.512,8.676c-.027,1.88-.4,4.191-2.613,4.193-2.241,0-2.585-2.419-2.606-4.193.025-1.817.357-4.2,2.606-4.2h2.613Zm.209-10.323h4.122a.264.264,0,0,0,.214-.1.411.411,0,0,0,.09-.252V17.034a.428.428,0,0,0-.09-.251.291.291,0,0,0-.214-.093h-4.122a.271.271,0,0,0-.209.093.356.356,0,0,0-.093.251v4.053a.336.336,0,0,0,.093.252A.247.247,0,0,0,159.025,21.443Zm31.165,1.821a7.807,7.807,0,0,0-8.036,8.1.39.39,0,0,0,.08.262.305.305,0,0,0,.222.1h3.85a.316.316,0,0,0,.294-.321c.186-2.385,1.622-3.214,3.589-3.248,3.513.016,5.67,2.907,5.785,6.926h-17c-1.66-.029-2.536-1.074-2.613-2.88V25.6a.388.388,0,0,0-.088-.244.285.285,0,0,0-.212-.1h-4.131a.29.29,0,0,0-.214.1.391.391,0,0,0-.09.244v12.04c-.03,3.1-2.094,4-3.45,4.02a8.141,8.141,0,0,1-2.316-.392c-.631-.186-1.059-.393-1.062-.384a.281.281,0,0,0-.3.052.343.343,0,0,0-.1.333l.658,3.887a.378.378,0,0,0,.176.255,10.1,10.1,0,0,0,3.463,1.008l.027-.349-.027.349a5.985,5.985,0,0,0,.6.029h.022c3.189,0,6.29-2.419,6.913-6.857a5.268,5.268,0,0,0,2.978.843h21.181a.318.318,0,0,0,.225-.1.425.425,0,0,0,.087-.246V35.44C200.706,28.554,195.871,23.269,190.19,23.264Zm-1.454-1.93h4.152a.265.265,0,0,0,.212-.1.4.4,0,0,0,.091-.247V16.93a.4.4,0,0,0-.091-.248.281.281,0,0,0-.212-.1h-4.152a.273.273,0,0,0-.217.1.362.362,0,0,0-.093.248v4.06a.373.373,0,0,0,.093.247A.259.259,0,0,0,188.736,21.334Zm31,.043h4.155a.3.3,0,0,0,.219-.1.4.4,0,0,0,.093-.247V16.968a.388.388,0,0,0-.093-.248.284.284,0,0,0-.219-.1h-4.155a.24.24,0,0,0-.2.1.325.325,0,0,0-.087.248v4.059a.334.334,0,0,0,.087.247A.255.255,0,0,0,219.737,21.377Zm20.495-4.307h-4.1a.287.287,0,0,0-.214.1.374.374,0,0,0-.082.246V33.342c-.039,1.221-.495,1.706-1.46,1.743h-6.834a8.185,8.185,0,0,0,1.2-4.151l-.3-.008h.3c0-3.959-2.665-7.907-6.847-7.912s-6.82,3.958-6.828,7.912a7.887,7.887,0,0,0,1.127,4.159H210.56c-.931-.037-1.394-.519-1.432-1.743V17.418a.382.382,0,0,0-.083-.246.274.274,0,0,0-.214-.1h-4.064a.3.3,0,0,0-.217.1.424.424,0,0,0-.091.246v15.64c.02,2,.421,7.376,5.767,7.378h8.73a6.288,6.288,0,0,0,2.95-.727,6.441,6.441,0,0,0,3.019.727h9.819c5.341-.008,5.785-5.38,5.8-7.378V17.418a.369.369,0,0,0-.095-.246A.267.267,0,0,0,240.232,17.069ZM221.888,34.1a3.96,3.96,0,0,1-2.121-3.186c.013-1.192.677-2.676,2.129-2.681,1.479.005,2.1,1.48,2.116,2.7A4.156,4.156,0,0,1,221.888,34.1Zm26.984-16.925a.27.27,0,0,0-.212-.1H244.6a.3.3,0,0,0-.217.1.41.41,0,0,0-.091.246V40.091a.407.407,0,0,0,.091.246.321.321,0,0,0,.217.1h4.064a.277.277,0,0,0,.212-.1.367.367,0,0,0,.093-.246V17.418A.4.4,0,0,0,248.872,17.172Z" transform="translate(-148.776 -16.581)"/><path class="a" d="M302.489,70.638a8.821,8.821,0,0,0-4.385-1.213l-5.451,18.619.011,10.479H298.1V98.5a8.269,8.269,0,0,0,4.462-1.345A6.2,6.2,0,0,0,305.1,93.97a22.6,22.6,0,0,0,.576-6.158V86.725h-6.815v3.516a11.1,11.1,0,0,1-.232,2.928.979.979,0,0,1-1,.617.962.962,0,0,1-1.016-.617,9.757,9.757,0,0,1-.23-2.668V77.525a10.507,10.507,0,0,1,.23-2.765.99.99,0,0,1,1.068-.631.928.928,0,0,1,.966.527,9.2,9.2,0,0,1,.219,2.64V82.15h6.815V79.5a19.78,19.78,0,0,0-.611-5.767A5.819,5.819,0,0,0,302.489,70.638Zm7.564-1.247-3.475,29.132h7.053l.412-5.24h2.438l.365,5.24h6.973l-3.9-29.132Zm3.9,18.736c.176-2.588.61-6.66,1.307-12.24q.519,7.286,1.037,12.24Zm58-3.3q-1.173-1.844-5.739-4.72a5.32,5.32,0,0,1-1.923-1.715,4.845,4.845,0,0,1-.359-2.1,3.343,3.343,0,0,1,.321-1.625,1.023,1.023,0,0,1,.94-.531.853.853,0,0,1,.8.4,4.284,4.284,0,0,1,.246,1.841v2.068h6.323v-1.1a12.893,12.893,0,0,0-.606-4.716,4.835,4.835,0,0,0-2.473-2.311,10.23,10.23,0,0,0-4.525-.917,9.4,9.4,0,0,0-4.147.84,5.3,5.3,0,0,0-2.487,2.321,10.741,10.741,0,0,0-.771,4.7,10.36,10.36,0,0,0,.544,3.655,6.106,6.106,0,0,0,1.367,2.245,30.773,30.773,0,0,0,3.378,2.6,20.53,20.53,0,0,1,3.181,2.535c.43.5.631,1.589.631,3.231a3.362,3.362,0,0,1-.327,1.684,1.1,1.1,0,0,1-1.016.577,1.009,1.009,0,0,1-.95-.45,4.672,4.672,0,0,1-.269-2.017v-3.4h-6.328v1.827a15.334,15.334,0,0,0,.6,4.852,5.286,5.286,0,0,0,2.533,2.819,9.372,9.372,0,0,0,4.677,1.106,9.5,9.5,0,0,0,4.371-.967,5.259,5.259,0,0,0,2.539-2.373,11.2,11.2,0,0,0,.65-4.4C373.141,88.045,372.749,86.055,371.959,84.825Zm-32.523-2.912c.51-.779.767-2.3.767-4.566a10.5,10.5,0,0,0-1.079-5.427,4.548,4.548,0,0,0-2.79-2.111,33.152,33.152,0,0,0-6.537-.419h-4.83V98.523h6.827V85.385c.936,0,1.521.19,1.738.549a7.406,7.406,0,0,1,.337,2.9v9.685H340.2v-7.69a30.841,30.841,0,0,0-.173-4.3,4.693,4.693,0,0,0-.87-1.723,4.964,4.964,0,0,0-2.722-1.487A3.831,3.831,0,0,0,339.436,81.914Zm-5.567-3.686c0,1.276-.153,2.042-.466,2.278a2.788,2.788,0,0,1-1.609.354V74.385a2.349,2.349,0,0,1,1.627.427,2.578,2.578,0,0,1,.448,1.809Zm7.806-3.006H345.7v23.3h6.82v-23.3h4.056V69.391h-14.9Z" transform="translate(-189.469 -31.517)"/><path class="b" d="M199.45,69.391h-6.219l-1.586,7.957c-.2-1.206-.45-2.519-.763-3.942-.389-1.872-.642-3.21-.774-4.015h-7.185l2.706,12.88-2.706,16.253h7.234l.7-4.756c.338-2.061.6-4.015.787-5.859a98.362,98.362,0,0,0,2.25,10.616h6.878l-3.93-16.253ZM174.1,90.416a10.222,10.222,0,0,1-.206,2.7.853.853,0,0,1-.906.573.8.8,0,0,1-.818-.521,8.834,8.834,0,0,1-.2-2.387V69.391h-7.416V86.278c0,3.208.047,5.324.164,6.326a6.175,6.175,0,0,0,1.145,2.868,6.916,6.916,0,0,0,2.929,2.195,11.336,11.336,0,0,0,4.522.857,10.1,10.1,0,0,0,4-.731,6.257,6.257,0,0,0,2.741-2.088,6.044,6.044,0,0,0,1.255-2.7,32.11,32.11,0,0,0,.217-4.55V69.391H174.1ZM156.2,69.391h-7.422V98.523H162.67V92.683H156.2Zm93.832,0q-1.437,6.822-2.058,11.485-.208-2.96-1.807-11.485h-6.822l5.223,18.583v10.55h6.353V87.893l5.39-18.5ZM211.273,90.416a10.83,10.83,0,0,1-.193,2.7.856.856,0,0,1-.908.573.8.8,0,0,1-.82-.521,8.346,8.346,0,0,1-.2-2.387V69.391H201.72V86.278c0,3.208.062,5.324.184,6.326a6.05,6.05,0,0,0,1.142,2.868,6.806,6.806,0,0,0,2.925,2.195,11.353,11.353,0,0,0,4.522.857,10.148,10.148,0,0,0,4.01-.731,6.319,6.319,0,0,0,2.735-2.088,6.234,6.234,0,0,0,1.263-2.7,33.753,33.753,0,0,0,.209-4.55V69.391h-7.437Zm26.061-8.5q.832-1.168.834-4.566c0-2.488-.4-4.3-1.175-5.427a4.912,4.912,0,0,0-3.035-2.111,39.29,39.29,0,0,0-7.113-.419h-5.27V98.523h7.431V85.385c1.021,0,1.652.19,1.9.561a7,7,0,0,1,.357,2.892v9.685h6.9v-7.69a27.551,27.551,0,0,0-.192-4.3,4.337,4.337,0,0,0-.941-1.726,5.558,5.558,0,0,0-2.964-1.487A4.331,4.331,0,0,0,237.334,81.914Zm-6.07-3.686c0,1.276-.166,2.042-.5,2.278a3.245,3.245,0,0,1-1.757.354V74.385a2.712,2.712,0,0,1,1.774.427,2.442,2.442,0,0,1,.483,1.809Z" transform="translate(-148.776 -31.517)"/></g><g transform="translate(17.123 16.796)"><g transform="translate(0.217 50.038)"><path class="a" d="M25.992,86.653a8.413,8.413,0,1,0,8.425,8.41A8.413,8.413,0,0,0,25.992,86.653Zm0,13.124a4.715,4.715,0,1,1,4.722-4.714A4.715,4.715,0,0,1,25.992,99.777Z" transform="translate(-17.572 -86.653)"/><path class="a" d="M115.423,86.653a8.413,8.413,0,1,0,8.427,8.41A8.412,8.412,0,0,0,115.423,86.653Zm0,13.124a4.715,4.715,0,1,1,4.716-4.714A4.714,4.714,0,0,1,115.423,99.777Z" transform="translate(-42.865 -86.653)"/></g><g transform="translate(0)"><path class="b" d="M28.06,93.951a3.177,3.177,0,1,0,3.18,3.176A3.176,3.176,0,0,0,28.06,93.951Zm0,4.608a1.431,1.431,0,1,1,1.434-1.432A1.431,1.431,0,0,1,28.06,98.559Z" transform="translate(-19.424 -38.679)"/><path class="b" d="M117.491,93.951a3.177,3.177,0,1,0,3.18,3.176A3.174,3.174,0,0,0,117.491,93.951Zm0,4.608a1.431,1.431,0,1,1,1.433-1.432A1.431,1.431,0,0,1,117.491,98.559Z" transform="translate(-44.717 -38.679)"/><path class="b" d="M104.136,43.509c-1.561-1.061-7.507-3.285-16.737-2.578L84.938,24.064l-.041-.128-.871-1.7h3.085c1.074,0,1.13-1.229.393-1.959-2.7-2.836-6.852-3.4-26.1-3.4S35.68,19.725,33.63,20.564s-1.166,1.673-.346,1.673h6.741L26.844,53.792a21.671,21.671,0,0,0-3.275,1.35c-3.311,1.769-5.641,5.446-5.129,7.536s3.08,1.684,3.08,1.684v1.907a5.6,5.6,0,0,0-4.249,5.64,9.292,9.292,0,0,1,17.812,1.946h1.251a4.612,4.612,0,0,1,1.684,1.768H76.644a5.518,5.518,0,0,1,1.307-2.281,7.355,7.355,0,0,0,2.808,2.385c-.007-.134-.017-.266-.017-.4a9.3,9.3,0,0,1,18.573-.59l3.242-.7c1.748-.7.605-2.75.605-2.75,2.095-1.2.646-3.3.646-3.3s-1.114-2.187-3.163-5.631a4.625,4.625,0,0,0-5.263-2.42,4.8,4.8,0,0,0-3.729-3.494c-.519-.12-1.128-.252-1.791-.376l-1.43-12.49a.783.783,0,0,0-.14-.366l-.077-.118c3.042-.045,7.236.268,14.057,2.419,2.56.8,2.751-.143,2.751-.143S105.582,44.487,104.136,43.509Zm-16,12.266c-.393-.06-.79-.118-1.195-.177L85.568,43.577a.8.8,0,0,0-.141-.366L85.42,43.2c.269-.015.539-.023.829-.042l.541.812ZM83.1,22.238l1.022,2.014L86.56,40.994c-.785.077-1.585.156-2.41.278a1.5,1.5,0,0,0-.162.029.944.944,0,0,0-.1-.01c-.173.024-.329.05-.488.079a.225.225,0,0,0,0-.058l-2.163-17.24a.437.437,0,0,0-.106-.232l-1.437-1.6Zm-.952,24.806a4.222,4.222,0,0,0-.033-1.848c.012-.038.033-.072.055-.123a3.635,3.635,0,0,1,1.424-1.595l.329.491,1.31,11.412a40.611,40.611,0,0,0-4.341-.332,5.524,5.524,0,0,0-1.551.285l.773-2.29a.416.416,0,0,0,.011-.112.46.46,0,0,0,.068-.071C80.934,51.837,81.951,48.012,82.143,47.043Zm-1.375-4.061c.085-.047.169-.1.272-.158a7.286,7.286,0,0,1,1.5-.579c.036.266.3.526.709.716l.016.027A3.639,3.639,0,0,0,81.8,44.332,4.516,4.516,0,0,0,80.768,42.982ZM43.161,22.238H78.567l1.85,2.063,2.147,17.119h0a.349.349,0,0,0,.04.115,7.99,7.99,0,0,0-2.4,1,6.1,6.1,0,0,0-2.818-1.026c-2.75-.278-4.056,2.139-4.892,5.722a4.61,4.61,0,0,0,.458,3.648,5.218,5.218,0,0,0-.669.055A3.859,3.859,0,0,0,70.3,49.212a2.943,2.943,0,0,0-.922-.139c-2.526.046-5.7,2.482-7.449,3.929l-2.616-.186c-2.841.095-3.126,2.326-2.935,3.626a28.268,28.268,0,0,0,1.071,3.865v6.514H44.489l-2.743-5.116-1.911-.141a1.944,1.944,0,0,0,1.21-2.141c-.281-.972-.8-1.353-1.491-1.353h-1.91l-.815-1.807,13.59-11.4,3.987.169,1.752,1.9a1.109,1.109,0,0,0,.819.353,1.137,1.137,0,0,0,.763-.289,1.118,1.118,0,0,0,.058-1.58l-8.224-8.9a1.117,1.117,0,1,0-1.642,1.514L49.5,39.72l-.338,3.92a.3.3,0,0,0,0,.092L36.107,54.679l-1.684-3.724-2.283,1.485s-.7.126-1.747.369Zm35.6,31.313-.909,2.7c-.085-.424-.192-.9-.335-1.373a8.527,8.527,0,0,0-.606-1.47A5.478,5.478,0,0,0,78.76,53.551ZM72.9,52.142c-.021-.048-.047-.092-.067-.142.049,0,.1-.009.146-.009a3.23,3.23,0,0,1,.977.146,2.881,2.881,0,0,1,.421.166,4.626,4.626,0,0,0,.437.268,3.579,3.579,0,0,1,.6.582L74.5,55.978c-.382-.44-.76-.9-1.074-1.285a.561.561,0,0,0,.087-.377A11.071,11.071,0,0,0,72.9,52.142Zm3.27,2.314a10.809,10.809,0,0,1,.681,2.641c.018.115.034.209.045.3a1.145,1.145,0,0,1-.583.161c-.184.005-.535-.261-.933-.653ZM64.238,57.294c2.186-1.958,4.075-3.407,4.235-3.236s-1.491,1.9-3.676,3.852-4.081,3.4-4.233,3.227S62.053,59.246,64.238,57.294Zm-4.969,3.561c-.181-.137,1.064-2.093,3.13-4.051,2.049-1.974,4.133-3.056,4.237-2.867.131.21-1.674,1.551-3.662,3.469C60.961,59.31,59.454,60.995,59.269,60.854ZM67.2,53.4l-3.653-.271c1.759-1.353,4.3-2.974,5.829-2.935a1.811,1.811,0,0,1,.568.085,2.465,2.465,0,0,1,1.17.921A12.488,12.488,0,0,0,67.2,53.4Zm2.1-.12a9.623,9.623,0,0,1,2.4-1.091c.059.122.112.251.162.371a8.581,8.581,0,0,1,.387,1.2l-3.325-.238C69.036,53.442,69.17,53.358,69.3,53.275ZM36.778,59.657c-.309.9-.736,1.567-.951,1.492s-.147-.866.164-1.769.735-1.568.951-1.487S37.09,58.751,36.778,59.657ZM33.63,53.921c-.552,1.154-1.166,2.01-1.372,1.909s.073-1.113.623-2.269,1.172-2.011,1.379-1.916S34.186,52.76,33.63,53.921Zm-14.478,7.22c-.2-.215,2.3-2.213,5.922-3.506a31.949,31.949,0,0,1,4.377-1.279,8.577,8.577,0,0,1,2.635-.426c.015.039-.1.089-.3.168-.026.273-2.953,1.032-6.412,2.316-.544.192-1.053.39-1.535.587C21.127,60.189,19.224,61.258,19.153,61.141ZM36.1,72.247c-.331.227-1.509-3.53-5.172-5.961-3.723-2.41-7.634-1.345-7.591-1.693-.016-.006,0-.016.018-.033a.712.712,0,0,1,.084-.041.052.052,0,0,1,.029-.014l0,0a9.309,9.309,0,0,1,7.913,1.087A10.973,10.973,0,0,1,36.1,72.247Zm21.279,1.485c-11.141.214-20.166.205-20.175-.027a7.063,7.063,0,0,1,1.657-.2c-.318-.214-1.9-3.927-3.646-8.56-1.806-4.817-3.107-8.79-2.891-8.872s1.857,3.762,3.678,8.582c1.722,4.586,2.975,8.389,2.906,8.815v.005c0,.006,0,.028,0,.03.431-.03.945-.057,1.522-.09a31.424,31.424,0,0,1-2.689-5.832c-1.3-3.321-2.177-6.073-1.965-6.155s1.441,2.533,2.74,5.846c1.241,3.169,2.093,5.8,1.979,6.115h0a.162.162,0,0,0,0,.024c3.6-.181,9.809-.376,16.873-.516q.676-.009,1.342-.022a17.12,17.12,0,0,1-.911-2.538c-.488-1.729-.709-3.184-.486-3.244s.8,1.287,1.291,3.016a16.046,16.046,0,0,1,.521,2.368c.026.148.047.269.057.384H59.2a39.487,39.487,0,0,1-.257-5.275c0-3.146.187-5.694.413-5.694s.416,2.549.416,5.694a40.006,40.006,0,0,1-.255,5.275c10.123-.179,18.017-.156,18.023.063S68.516,73.512,57.384,73.731ZM78.16,61.407c-1.747,1.38-4.664.382-7.324.734-6.282,0-11.375-.181-11.375-.419s5.093-.413,11.375-.413c3-.283,6.406.734,7.383-.765A3.377,3.377,0,0,0,78.44,59.5c-.023-.94-.311-1.726-.29-1.961-.006-.047,0-.074.037-.074.111-.084.941.919.858,2.535a2.229,2.229,0,0,1-.291.774c0,.01,0,.021-.006.039-.022.027-.044.05-.065.076A1.862,1.862,0,0,1,78.16,61.407Zm22.223,8.679c-.209.61-3.512-6.043-11.016-5.563a14,14,0,0,0-9.441,5.349,9.459,9.459,0,0,1-.855,1.257c-.071.135-.1.207-.082.187-.435.068.854-3.146,4.312-5.445a11.531,11.531,0,0,1,1.738-.965c.12-.064.242-.121.374-.179a.306.306,0,0,1,.08-.027,13.779,13.779,0,0,1,3.8-1,11.309,11.309,0,0,1,7.974,2.555A9.4,9.4,0,0,1,100.383,70.086ZM92.6,60.2c3.7.413,6.51,1.992,6.247,2.316a32.12,32.12,0,0,0-6.358-1.494c-3.605-.456-6.58-.6-6.573-.883C85.914,59.968,88.919,59.733,92.6,60.2Z" transform="translate(-17.27 -16.881)"/></g></g></g></svg>